# xmcd CD database file
#
# Track frame offsets:
#	150
#	13597
#	27902
#	41237
#	54417
#	69510
#	84590
#	98952
#	114737
#	129527
#	141225
#	150582
#	163042
#	175402
#	188035
#	200742
#	213587
#	227730
#
# Disc length: 3308 seconds
#
# Revision: 1
# Processed by: cddbd v1.5.2PL0 Copyright (c) Steve Scherf et al.
# Submitted via: CDex 1.51
#
DISCID=030cea12
DTITLE=Jimmy Rogers - You're The One: The Chicago Blues Master
DYEAR=1900
DGENRE=Blues
TTITLE0=Left Me With A Broken Heart
TTITLE1=Today, Today Blues
TTITLE2=The World's In A Tangle
TTITLE3=The Loves Another Man
TTITLE4=Hard Working Man
TTITLE5=Chance To Love
TTITLE6=My Little Machine
TTITLE7=Mistreated Baby
TTITLE8=What's The Matter
TTITLE9=You're The One (Early Version)
TTITLE10=If It Ain't Me
TTITLE11=One Kiss
TTITLE12=What Have I Done
TTITLE13=I Can't Believe
TTITLE14=Crying Shame
TTITLE15=Rock This House
TTITLE16=My Last Meal
TTITLE17=This Has Never Been
EXTD=
EXTT0=
EXTT1=
EXTT2=
EXTT3=
EXTT4=
EXTT5=
EXTT6=
EXTT7=
EXTT8=
EXTT9=
EXTT10=
EXTT11=
EXTT12=
EXTT13=
EXTT14=
EXTT15=
EXTT16=
EXTT17=
PLAYORDER=
